<mxfile host="app.diagrams.net" agent="Mozilla/5.0 (Windows NT 10.0; Win64; x64) AppleWebKit/537.36 (KHTML, like Gecko) Chrome/131.0.0.0 Safari/537.36" version="24.8.6">
  <diagram name="Page-1" id="2YBvvXClWsGukQMizWep">
    <mxGraphModel dx="1354" dy="720" grid="1" gridSize="10" guides="1" tooltips="1" connect="1" arrows="1" fold="1" page="1" pageScale="1" pageWidth="850" pageHeight="1100" math="0" shadow="0">
      <root>
        <mxCell id="0" />
        <mxCell id="1" parent="0" />
        <mxCell id="hMRMxi6KnBBkHidGudMh-1" value="Camara" style="rounded=0;whiteSpace=wrap;html=1;" vertex="1" parent="1">
          <mxGeometry x="10" y="190" width="90" height="50" as="geometry" />
        </mxCell>
        <mxCell id="hMRMxi6KnBBkHidGudMh-3" value="Sistema" style="rounded=0;whiteSpace=wrap;html=1;" vertex="1" parent="1">
          <mxGeometry x="280" y="190" width="90" height="50" as="geometry" />
        </mxCell>
        <mxCell id="hMRMxi6KnBBkHidGudMh-4" value="" style="endArrow=none;dashed=1;html=1;rounded=0;" edge="1" parent="1">
          <mxGeometry width="50" height="50" relative="1" as="geometry">
            <mxPoint x="60" y="902" as="sourcePoint" />
            <mxPoint x="60" y="240" as="targetPoint" />
          </mxGeometry>
        </mxCell>
        <mxCell id="hMRMxi6KnBBkHidGudMh-5" value="" style="endArrow=none;dashed=1;html=1;rounded=0;" edge="1" parent="1">
          <mxGeometry width="50" height="50" relative="1" as="geometry">
            <mxPoint x="325" y="910" as="sourcePoint" />
            <mxPoint x="324.5" y="240" as="targetPoint" />
          </mxGeometry>
        </mxCell>
        <mxCell id="hMRMxi6KnBBkHidGudMh-6" value="" style="endArrow=classic;html=1;rounded=0;" edge="1" parent="1">
          <mxGeometry width="50" height="50" relative="1" as="geometry">
            <mxPoint x="320" y="309.65517241379314" as="sourcePoint" />
            <mxPoint x="330" y="310" as="targetPoint" />
          </mxGeometry>
        </mxCell>
        <mxCell id="hMRMxi6KnBBkHidGudMh-9" value="Registro" style="rounded=0;whiteSpace=wrap;html=1;" vertex="1" parent="1">
          <mxGeometry x="425" y="320" width="70" height="25" as="geometry" />
        </mxCell>
        <mxCell id="hMRMxi6KnBBkHidGudMh-10" value="" style="html=1;points=[[0,0,0,0,5],[0,1,0,0,-5],[1,0,0,0,5],[1,1,0,0,-5]];perimeter=orthogonalPerimeter;outlineConnect=0;targetShapes=umlLifeline;portConstraint=eastwest;newEdgeStyle={&quot;curved&quot;:0,&quot;rounded&quot;:0};" vertex="1" parent="1">
          <mxGeometry x="320" y="300" width="10" height="560" as="geometry" />
        </mxCell>
        <mxCell id="hMRMxi6KnBBkHidGudMh-13" value="" style="endArrow=classic;html=1;rounded=0;" edge="1" parent="1">
          <mxGeometry width="50" height="50" relative="1" as="geometry">
            <mxPoint x="60" y="310" as="sourcePoint" />
            <mxPoint x="320" y="313.132530120482" as="targetPoint" />
          </mxGeometry>
        </mxCell>
        <mxCell id="hMRMxi6KnBBkHidGudMh-14" value="&lt;font style=&quot;font-size: 10px;&quot;&gt;EnviaDatos(FechayHora:date,Id:str, Patente:str, Velocidad:float)&lt;/font&gt;" style="text;html=1;align=center;verticalAlign=middle;resizable=0;points=[];autosize=1;strokeColor=none;fillColor=none;" vertex="1" parent="1">
          <mxGeometry x="20" y="290" width="310" height="30" as="geometry" />
        </mxCell>
        <mxCell id="hMRMxi6KnBBkHidGudMh-18" value="&lt;font style=&quot;font-size: 9px;&quot;&gt;Crear(FechayHora:date,Id:str,Patente:str,Velocidad:float)&lt;/font&gt;" style="text;html=1;align=center;verticalAlign=middle;resizable=0;points=[];autosize=1;strokeColor=none;fillColor=none;" vertex="1" parent="1">
          <mxGeometry x="175" y="310" width="250" height="30" as="geometry" />
        </mxCell>
        <mxCell id="hMRMxi6KnBBkHidGudMh-22" value="" style="html=1;verticalAlign=bottom;endArrow=open;dashed=1;endSize=8;curved=0;rounded=0;entryX=0;entryY=0.5;entryDx=0;entryDy=0;" edge="1" parent="1" target="hMRMxi6KnBBkHidGudMh-9">
          <mxGeometry relative="1" as="geometry">
            <mxPoint x="330" y="332" as="sourcePoint" />
            <mxPoint x="400" y="332" as="targetPoint" />
          </mxGeometry>
        </mxCell>
        <mxCell id="hMRMxi6KnBBkHidGudMh-24" value="" style="endArrow=none;dashed=1;html=1;rounded=0;" edge="1" parent="1">
          <mxGeometry width="50" height="50" relative="1" as="geometry">
            <mxPoint x="460" y="910" as="sourcePoint" />
            <mxPoint x="460" y="345" as="targetPoint" />
          </mxGeometry>
        </mxCell>
        <mxCell id="hMRMxi6KnBBkHidGudMh-26" value="Api&lt;span style=&quot;color: rgba(0, 0, 0, 0); font-family: monospace; font-size: 0px; text-align: start; text-wrap-mode: nowrap;&quot;&gt;%3CmxGraphModel%3E%3Croot%3E%3CmxCell%20id%3D%220%22%2F%3E%3CmxCell%20id%3D%221%22%20parent%3D%220%22%2F%3E%3CmxCell%20id%3D%222%22%20value%3D%22Sistema%22%20style%3D%22rounded%3D0%3BwhiteSpace%3Dwrap%3Bhtml%3D1%3B%22%20vertex%3D%221%22%20parent%3D%221%22%3E%3CmxGeometry%20x%3D%22280%22%20y%3D%22190%22%20width%3D%2290%22%20height%3D%2250%22%20as%3D%22geometry%22%2F%3E%3C%2FmxCell%3E%3C%2Froot%3E%3C%2FmxGraphModel%3E&lt;/span&gt;" style="rounded=0;whiteSpace=wrap;html=1;" vertex="1" parent="1">
          <mxGeometry x="520" y="190" width="90" height="50" as="geometry" />
        </mxCell>
        <mxCell id="hMRMxi6KnBBkHidGudMh-27" value="Correo" style="rounded=0;whiteSpace=wrap;html=1;" vertex="1" parent="1">
          <mxGeometry x="700" y="190" width="90" height="50" as="geometry" />
        </mxCell>
        <mxCell id="hMRMxi6KnBBkHidGudMh-28" value="Impresora" style="rounded=0;whiteSpace=wrap;html=1;" vertex="1" parent="1">
          <mxGeometry x="880" y="190" width="90" height="50" as="geometry" />
        </mxCell>
        <mxCell id="hMRMxi6KnBBkHidGudMh-29" value="" style="endArrow=none;dashed=1;html=1;rounded=0;" edge="1" parent="1">
          <mxGeometry width="50" height="50" relative="1" as="geometry">
            <mxPoint x="565" y="910" as="sourcePoint" />
            <mxPoint x="564.5" y="240" as="targetPoint" />
          </mxGeometry>
        </mxCell>
        <mxCell id="hMRMxi6KnBBkHidGudMh-30" value="" style="endArrow=none;dashed=1;html=1;rounded=0;" edge="1" parent="1">
          <mxGeometry width="50" height="50" relative="1" as="geometry">
            <mxPoint x="745" y="910" as="sourcePoint" />
            <mxPoint x="744.5" y="240" as="targetPoint" />
          </mxGeometry>
        </mxCell>
        <mxCell id="hMRMxi6KnBBkHidGudMh-31" value="" style="endArrow=none;dashed=1;html=1;rounded=0;" edge="1" parent="1">
          <mxGeometry width="50" height="50" relative="1" as="geometry">
            <mxPoint x="925" y="910" as="sourcePoint" />
            <mxPoint x="924.5" y="240" as="targetPoint" />
          </mxGeometry>
        </mxCell>
        <mxCell id="hMRMxi6KnBBkHidGudMh-32" value="Alt" style="shape=umlFrame;whiteSpace=wrap;html=1;pointerEvents=0;" vertex="1" parent="1">
          <mxGeometry x="330" y="390" width="620" height="430" as="geometry" />
        </mxCell>
        <mxCell id="hMRMxi6KnBBkHidGudMh-33" value="Multiobjeto&lt;div&gt;Registro&lt;/div&gt;" style="rounded=0;whiteSpace=wrap;html=1;" vertex="1" parent="1">
          <mxGeometry x="1050" y="190" width="90" height="50" as="geometry" />
        </mxCell>
        <mxCell id="hMRMxi6KnBBkHidGudMh-34" value="" style="endArrow=none;dashed=1;html=1;rounded=0;" edge="1" parent="1">
          <mxGeometry width="50" height="50" relative="1" as="geometry">
            <mxPoint x="1100" y="910" as="sourcePoint" />
            <mxPoint x="1100" y="240" as="targetPoint" />
          </mxGeometry>
        </mxCell>
        <mxCell id="hMRMxi6KnBBkHidGudMh-35" value="" style="endArrow=classic;html=1;rounded=0;" edge="1" parent="1" target="hMRMxi6KnBBkHidGudMh-38">
          <mxGeometry width="50" height="50" relative="1" as="geometry">
            <mxPoint x="330" y="360" as="sourcePoint" />
            <mxPoint x="1150" y="360" as="targetPoint" />
          </mxGeometry>
        </mxCell>
        <mxCell id="hMRMxi6KnBBkHidGudMh-36" value="AgregarRegistrp(Registro)" style="text;html=1;align=center;verticalAlign=middle;resizable=0;points=[];autosize=1;strokeColor=none;fillColor=none;" vertex="1" parent="1">
          <mxGeometry x="580" y="340" width="160" height="30" as="geometry" />
        </mxCell>
        <mxCell id="hMRMxi6KnBBkHidGudMh-37" value="&amp;lt;&amp;lt;Null&amp;gt;&amp;gt;" style="html=1;verticalAlign=bottom;endArrow=open;dashed=1;endSize=8;curved=0;rounded=0;exitX=0;exitY=1;exitDx=0;exitDy=-5;exitPerimeter=0;" edge="1" parent="1" source="hMRMxi6KnBBkHidGudMh-38" target="hMRMxi6KnBBkHidGudMh-10">
          <mxGeometry relative="1" as="geometry">
            <mxPoint x="1150" y="380" as="sourcePoint" />
            <mxPoint x="1070" y="380" as="targetPoint" />
          </mxGeometry>
        </mxCell>
        <mxCell id="hMRMxi6KnBBkHidGudMh-38" value="" style="html=1;points=[[0,0,0,0,5],[0,1,0,0,-5],[1,0,0,0,5],[1,1,0,0,-5]];perimeter=orthogonalPerimeter;outlineConnect=0;targetShapes=umlLifeline;portConstraint=eastwest;newEdgeStyle={&quot;curved&quot;:0,&quot;rounded&quot;:0};" vertex="1" parent="1">
          <mxGeometry x="1100" y="350" width="10" height="40" as="geometry" />
        </mxCell>
        <mxCell id="hMRMxi6KnBBkHidGudMh-39" value="&lt;font style=&quot;font-size: 11px;&quot;&gt;[Velocidad&amp;gt;70 and Velocidad&amp;lt;100]&lt;/font&gt;" style="text;html=1;align=center;verticalAlign=middle;resizable=0;points=[];autosize=1;strokeColor=none;fillColor=none;" vertex="1" parent="1">
          <mxGeometry x="380" y="390" width="190" height="30" as="geometry" />
        </mxCell>
        <mxCell id="hMRMxi6KnBBkHidGudMh-40" value="" style="endArrow=classic;html=1;rounded=0;" edge="1" parent="1" target="hMRMxi6KnBBkHidGudMh-46">
          <mxGeometry width="50" height="50" relative="1" as="geometry">
            <mxPoint x="330" y="450" as="sourcePoint" />
            <mxPoint x="570" y="450" as="targetPoint" />
          </mxGeometry>
        </mxCell>
        <mxCell id="hMRMxi6KnBBkHidGudMh-41" value="EnviaDatos(Registro:class)" style="text;html=1;align=center;verticalAlign=middle;resizable=0;points=[];autosize=1;strokeColor=none;fillColor=none;" vertex="1" parent="1">
          <mxGeometry x="360" y="428" width="170" height="30" as="geometry" />
        </mxCell>
        <mxCell id="hMRMxi6KnBBkHidGudMh-42" value="&amp;lt;&amp;lt;Null&amp;gt;&amp;gt;" style="html=1;verticalAlign=bottom;endArrow=open;dashed=1;endSize=8;curved=0;rounded=0;" edge="1" parent="1" target="hMRMxi6KnBBkHidGudMh-10">
          <mxGeometry relative="1" as="geometry">
            <mxPoint x="560" y="470" as="sourcePoint" />
            <mxPoint x="480" y="470" as="targetPoint" />
          </mxGeometry>
        </mxCell>
        <mxCell id="hMRMxi6KnBBkHidGudMh-43" value="" style="endArrow=classic;html=1;rounded=0;" edge="1" parent="1" target="hMRMxi6KnBBkHidGudMh-48">
          <mxGeometry width="50" height="50" relative="1" as="geometry">
            <mxPoint x="330" y="508" as="sourcePoint" />
            <mxPoint x="730" y="508" as="targetPoint" />
          </mxGeometry>
        </mxCell>
        <mxCell id="hMRMxi6KnBBkHidGudMh-44" value="EnviaCorreo(Registro:Class)" style="text;html=1;align=center;verticalAlign=middle;resizable=0;points=[];autosize=1;strokeColor=none;fillColor=none;" vertex="1" parent="1">
          <mxGeometry x="460" y="480" width="180" height="30" as="geometry" />
        </mxCell>
        <mxCell id="hMRMxi6KnBBkHidGudMh-45" value="&amp;lt;&amp;lt;Null&amp;gt;&amp;gt;" style="html=1;verticalAlign=bottom;endArrow=open;dashed=1;endSize=8;curved=0;rounded=0;" edge="1" parent="1" target="hMRMxi6KnBBkHidGudMh-10">
          <mxGeometry relative="1" as="geometry">
            <mxPoint x="740" y="530" as="sourcePoint" />
            <mxPoint x="660" y="530" as="targetPoint" />
          </mxGeometry>
        </mxCell>
        <mxCell id="hMRMxi6KnBBkHidGudMh-46" value="" style="html=1;points=[[0,0,0,0,5],[0,1,0,0,-5],[1,0,0,0,5],[1,1,0,0,-5]];perimeter=orthogonalPerimeter;outlineConnect=0;targetShapes=umlLifeline;portConstraint=eastwest;newEdgeStyle={&quot;curved&quot;:0,&quot;rounded&quot;:0};" vertex="1" parent="1">
          <mxGeometry x="560" y="440" width="10" height="30" as="geometry" />
        </mxCell>
        <mxCell id="hMRMxi6KnBBkHidGudMh-48" value="" style="html=1;points=[[0,0,0,0,5],[0,1,0,0,-5],[1,0,0,0,5],[1,1,0,0,-5]];perimeter=orthogonalPerimeter;outlineConnect=0;targetShapes=umlLifeline;portConstraint=eastwest;newEdgeStyle={&quot;curved&quot;:0,&quot;rounded&quot;:0};" vertex="1" parent="1">
          <mxGeometry x="740" y="500" width="10" height="40" as="geometry" />
        </mxCell>
        <mxCell id="hMRMxi6KnBBkHidGudMh-49" value="" style="endArrow=none;dashed=1;html=1;dashPattern=1 3;strokeWidth=2;rounded=0;entryX=0.995;entryY=0.398;entryDx=0;entryDy=0;entryPerimeter=0;" edge="1" parent="1" target="hMRMxi6KnBBkHidGudMh-32">
          <mxGeometry width="50" height="50" relative="1" as="geometry">
            <mxPoint x="330" y="560" as="sourcePoint" />
            <mxPoint x="380" y="510" as="targetPoint" />
          </mxGeometry>
        </mxCell>
        <mxCell id="hMRMxi6KnBBkHidGudMh-50" value="Else" style="text;html=1;align=center;verticalAlign=middle;resizable=0;points=[];autosize=1;strokeColor=none;fillColor=none;" vertex="1" parent="1">
          <mxGeometry x="330" y="560" width="50" height="30" as="geometry" />
        </mxCell>
        <mxCell id="hMRMxi6KnBBkHidGudMh-51" value="&lt;font style=&quot;font-size: 11px;&quot;&gt;[Velocidad&amp;gt;100]&lt;/font&gt;" style="text;html=1;align=center;verticalAlign=middle;resizable=0;points=[];autosize=1;strokeColor=none;fillColor=none;" vertex="1" parent="1">
          <mxGeometry x="370" y="560" width="100" height="30" as="geometry" />
        </mxCell>
        <mxCell id="hMRMxi6KnBBkHidGudMh-52" value="EnviaDatos(Registro:Class)" style="text;html=1;align=center;verticalAlign=middle;resizable=0;points=[];autosize=1;strokeColor=none;fillColor=none;" vertex="1" parent="1">
          <mxGeometry x="370" y="580" width="170" height="30" as="geometry" />
        </mxCell>
        <mxCell id="hMRMxi6KnBBkHidGudMh-53" value="" style="endArrow=classic;html=1;rounded=0;" edge="1" parent="1">
          <mxGeometry width="50" height="50" relative="1" as="geometry">
            <mxPoint x="330" y="610" as="sourcePoint" />
            <mxPoint x="560" y="610" as="targetPoint" />
          </mxGeometry>
        </mxCell>
        <mxCell id="hMRMxi6KnBBkHidGudMh-54" value="&amp;lt;&amp;lt;Null&amp;gt;&amp;gt;" style="html=1;verticalAlign=bottom;endArrow=open;dashed=1;endSize=8;curved=0;rounded=0;" edge="1" parent="1" source="hMRMxi6KnBBkHidGudMh-55">
          <mxGeometry relative="1" as="geometry">
            <mxPoint x="740" y="630" as="sourcePoint" />
            <mxPoint x="330" y="630.5" as="targetPoint" />
            <Array as="points">
              <mxPoint x="410" y="630.5" />
            </Array>
          </mxGeometry>
        </mxCell>
        <mxCell id="hMRMxi6KnBBkHidGudMh-55" value="" style="html=1;points=[[0,0,0,0,5],[0,1,0,0,-5],[1,0,0,0,5],[1,1,0,0,-5]];perimeter=orthogonalPerimeter;outlineConnect=0;targetShapes=umlLifeline;portConstraint=eastwest;newEdgeStyle={&quot;curved&quot;:0,&quot;rounded&quot;:0};" vertex="1" parent="1">
          <mxGeometry x="560" y="600" width="10" height="40" as="geometry" />
        </mxCell>
        <mxCell id="hMRMxi6KnBBkHidGudMh-62" value="" style="endArrow=classic;html=1;rounded=0;" edge="1" parent="1" target="hMRMxi6KnBBkHidGudMh-65">
          <mxGeometry width="50" height="50" relative="1" as="geometry">
            <mxPoint x="330" y="678" as="sourcePoint" />
            <mxPoint x="730" y="678" as="targetPoint" />
          </mxGeometry>
        </mxCell>
        <mxCell id="hMRMxi6KnBBkHidGudMh-63" value="EnviaCorreo(Registro:Class)" style="text;html=1;align=center;verticalAlign=middle;resizable=0;points=[];autosize=1;strokeColor=none;fillColor=none;" vertex="1" parent="1">
          <mxGeometry x="460" y="650" width="180" height="30" as="geometry" />
        </mxCell>
        <mxCell id="hMRMxi6KnBBkHidGudMh-64" value="&amp;lt;&amp;lt;Null&amp;gt;&amp;gt;" style="html=1;verticalAlign=bottom;endArrow=open;dashed=1;endSize=8;curved=0;rounded=0;" edge="1" parent="1">
          <mxGeometry relative="1" as="geometry">
            <mxPoint x="740" y="700" as="sourcePoint" />
            <mxPoint x="330" y="700" as="targetPoint" />
          </mxGeometry>
        </mxCell>
        <mxCell id="hMRMxi6KnBBkHidGudMh-65" value="" style="html=1;points=[[0,0,0,0,5],[0,1,0,0,-5],[1,0,0,0,5],[1,1,0,0,-5]];perimeter=orthogonalPerimeter;outlineConnect=0;targetShapes=umlLifeline;portConstraint=eastwest;newEdgeStyle={&quot;curved&quot;:0,&quot;rounded&quot;:0};" vertex="1" parent="1">
          <mxGeometry x="740" y="670" width="10" height="40" as="geometry" />
        </mxCell>
        <mxCell id="hMRMxi6KnBBkHidGudMh-67" value="Loop(3)" style="shape=umlFrame;whiteSpace=wrap;html=1;pointerEvents=0;" vertex="1" parent="1">
          <mxGeometry x="330" y="710" width="620" height="110" as="geometry" />
        </mxCell>
        <mxCell id="hMRMxi6KnBBkHidGudMh-68" value="" style="endArrow=classic;html=1;rounded=0;" edge="1" parent="1" target="hMRMxi6KnBBkHidGudMh-69">
          <mxGeometry width="50" height="50" relative="1" as="geometry">
            <mxPoint x="330" y="750" as="sourcePoint" />
            <mxPoint x="920" y="750" as="targetPoint" />
          </mxGeometry>
        </mxCell>
        <mxCell id="hMRMxi6KnBBkHidGudMh-69" value="" style="html=1;points=[[0,0,0,0,5],[0,1,0,0,-5],[1,0,0,0,5],[1,1,0,0,-5]];perimeter=orthogonalPerimeter;outlineConnect=0;targetShapes=umlLifeline;portConstraint=eastwest;newEdgeStyle={&quot;curved&quot;:0,&quot;rounded&quot;:0};" vertex="1" parent="1">
          <mxGeometry x="920" y="740" width="10" height="50" as="geometry" />
        </mxCell>
        <mxCell id="hMRMxi6KnBBkHidGudMh-70" value="EnviaDatos(Registro:class)" style="text;html=1;align=center;verticalAlign=middle;resizable=0;points=[];autosize=1;strokeColor=none;fillColor=none;" vertex="1" parent="1">
          <mxGeometry x="540" y="728" width="170" height="30" as="geometry" />
        </mxCell>
        <mxCell id="hMRMxi6KnBBkHidGudMh-71" value="&amp;lt;&amp;lt;Null&amp;gt;" style="html=1;verticalAlign=bottom;endArrow=open;dashed=1;endSize=8;curved=0;rounded=0;" edge="1" parent="1" target="hMRMxi6KnBBkHidGudMh-10">
          <mxGeometry relative="1" as="geometry">
            <mxPoint x="920" y="780" as="sourcePoint" />
            <mxPoint x="840" y="780" as="targetPoint" />
          </mxGeometry>
        </mxCell>
        <mxCell id="hMRMxi6KnBBkHidGudMh-72" value="&amp;lt;&amp;lt;Null&amp;gt;&amp;gt;" style="html=1;verticalAlign=bottom;endArrow=open;dashed=1;endSize=8;curved=0;rounded=0;exitX=0;exitY=1;exitDx=0;exitDy=-5;exitPerimeter=0;" edge="1" parent="1" source="hMRMxi6KnBBkHidGudMh-10">
          <mxGeometry relative="1" as="geometry">
            <mxPoint x="300" y="850" as="sourcePoint" />
            <mxPoint x="60" y="855" as="targetPoint" />
          </mxGeometry>
        </mxCell>
      </root>
    </mxGraphModel>
  </diagram>
</mxfile>
